<mxfile host="65bd71144e">
    <diagram id="1eEwsLm97YfKVC_2imgf" name="Page-1">
        <mxGraphModel dx="813" dy="1016" grid="1" gridSize="10" guides="1" tooltips="1" connect="1" arrows="1" fold="1" page="0" pageScale="1" pageWidth="827" pageHeight="1169" math="0" shadow="0">
            <root>
                <mxCell id="0"/>
                <mxCell id="1" parent="0"/>
                <mxCell id="nC8xY-jUYGHmh64Gt1b1-10" style="edgeStyle=none;rounded=0;orthogonalLoop=1;jettySize=auto;html=1;entryX=0;entryY=0;entryDx=0;entryDy=0;endArrow=none;endFill=0;fontSize=15;fontStyle=1;labelBackgroundColor=none;" parent="1" source="nC8xY-jUYGHmh64Gt1b1-1" target="nC8xY-jUYGHmh64Gt1b1-5" edge="1">
                    <mxGeometry relative="1" as="geometry">
                        <mxPoint x="-20" y="253" as="sourcePoint"/>
                    </mxGeometry>
                </mxCell>
                <mxCell id="nC8xY-jUYGHmh64Gt1b1-1" value="Читатель" style="shape=umlActor;verticalLabelPosition=bottom;verticalAlign=top;html=1;outlineConnect=0;fontSize=15;fontStyle=1;labelBackgroundColor=none;fillColor=none;" parent="1" vertex="1">
                    <mxGeometry x="-120" y="100" width="80" height="160" as="geometry"/>
                </mxCell>
                <mxCell id="nC8xY-jUYGHmh64Gt1b1-2" value="" style="swimlane;startSize=0;fontSize=15;fontStyle=1;labelBackgroundColor=none;" parent="1" vertex="1">
                    <mxGeometry x="20" y="-120" width="500" height="540" as="geometry"/>
                </mxCell>
                <mxCell id="nC8xY-jUYGHmh64Gt1b1-3" value="&lt;font style=&quot;font-size: 21px&quot;&gt;Библиотечная система&lt;br&gt;для&amp;nbsp;бронирования книг&lt;/font&gt;" style="text;html=1;align=center;verticalAlign=middle;resizable=0;points=[];autosize=1;strokeColor=none;fontSize=15;fontStyle=1;labelBackgroundColor=none;" parent="nC8xY-jUYGHmh64Gt1b1-2" vertex="1">
                    <mxGeometry x="120" y="10" width="270" height="50" as="geometry"/>
                </mxCell>
                <mxCell id="nC8xY-jUYGHmh64Gt1b1-5" value="Просмотр&lt;br&gt;данных&lt;br&gt;библиотек" style="ellipse;whiteSpace=wrap;html=1;fontSize=15;fontStyle=1;labelBackgroundColor=none;fillColor=none;" parent="nC8xY-jUYGHmh64Gt1b1-2" vertex="1">
                    <mxGeometry x="50" y="400" width="150" height="100" as="geometry"/>
                </mxCell>
                <mxCell id="nC8xY-jUYGHmh64Gt1b1-36" value="Просмотр&lt;br&gt;данных&lt;br&gt;книг" style="ellipse;whiteSpace=wrap;html=1;fontSize=15;fontStyle=1;labelBackgroundColor=none;fillColor=none;" parent="nC8xY-jUYGHmh64Gt1b1-2" vertex="1">
                    <mxGeometry x="110" y="250" width="150" height="100" as="geometry"/>
                </mxCell>
                <mxCell id="nC8xY-jUYGHmh64Gt1b1-51" value="&lt;span style=&quot;font-weight: 700&quot;&gt;&amp;lt;&amp;lt;extend&amp;gt;&amp;gt;&lt;/span&gt;" style="edgeStyle=none;rounded=0;orthogonalLoop=1;jettySize=auto;html=1;exitX=0;exitY=0;exitDx=0;exitDy=0;fontSize=15;startArrow=none;startFill=0;endArrow=classic;endFill=1;dashed=1;labelBackgroundColor=none;entryX=1;entryY=1;entryDx=0;entryDy=0;" parent="nC8xY-jUYGHmh64Gt1b1-2" source="nC8xY-jUYGHmh64Gt1b1-50" target="nC8xY-jUYGHmh64Gt1b1-36" edge="1">
                    <mxGeometry relative="1" as="geometry"/>
                </mxCell>
                <mxCell id="nC8xY-jUYGHmh64Gt1b1-50" value="Бронирование&lt;br&gt;книг" style="ellipse;whiteSpace=wrap;html=1;fontSize=15;fontStyle=1;labelBackgroundColor=none;fillColor=none;" parent="nC8xY-jUYGHmh64Gt1b1-2" vertex="1">
                    <mxGeometry x="270" y="400" width="150" height="100" as="geometry"/>
                </mxCell>
                <mxCell id="owC4zcLg2hRnqhh_YX6K-1" value="Просмотр&lt;br&gt;данных своего&lt;br&gt;профиля" style="ellipse;whiteSpace=wrap;html=1;fontSize=15;fontStyle=1;labelBackgroundColor=none;fillColor=none;" parent="nC8xY-jUYGHmh64Gt1b1-2" vertex="1">
                    <mxGeometry x="50" y="100" width="150" height="100" as="geometry"/>
                </mxCell>
                <mxCell id="nC8xY-jUYGHmh64Gt1b1-49" style="edgeStyle=none;rounded=0;orthogonalLoop=1;jettySize=auto;html=1;fontSize=15;startArrow=none;startFill=0;endArrow=none;endFill=0;labelBackgroundColor=none;" parent="1" source="nC8xY-jUYGHmh64Gt1b1-36" target="nC8xY-jUYGHmh64Gt1b1-1" edge="1">
                    <mxGeometry relative="1" as="geometry"/>
                </mxCell>
                <mxCell id="owC4zcLg2hRnqhh_YX6K-2" value="" style="endArrow=none;html=1;labelBackgroundColor=none;entryX=0;entryY=1;entryDx=0;entryDy=0;" parent="1" source="nC8xY-jUYGHmh64Gt1b1-1" target="owC4zcLg2hRnqhh_YX6K-1" edge="1">
                    <mxGeometry width="50" height="50" relative="1" as="geometry">
                        <mxPoint x="-40" y="230" as="sourcePoint"/>
                        <mxPoint x="130" y="130" as="targetPoint"/>
                    </mxGeometry>
                </mxCell>
            </root>
        </mxGraphModel>
    </diagram>
</mxfile>